<svg xmlns="http://www.w3.org/2000/svg" viewBox="0 0 200 200">
  <!-- Ghost body -->
  <path d="M100 20 C55 20 30 60 30 105 L30 160 L50 145 L70 160 L90 145 L110 160 L130 145 L150 160 L170 145 L170 105 C170 60 145 20 100 20 Z" fill="#8b5cf6"/>
  <!-- Ghost body highlight -->
  <path d="M100 20 C70 20 50 50 50 90 C50 60 75 30 100 30 C125 30 145 55 145 90 C145 50 130 20 100 20 Z" fill="#a78bfa" opacity="0.5"/>
  <!-- Left eye -->
  <ellipse cx="78" cy="85" rx="16" ry="18" fill="white"/>
  <ellipse cx="82" cy="88" rx="9" ry="10" fill="#1a1a2e"/>
  <circle cx="85" cy="85" r="3" fill="white"/>
  <!-- Right eye -->
  <ellipse cx="122" cy="85" rx="16" ry="18" fill="white"/>
  <ellipse cx="126" cy="88" rx="9" ry="10" fill="#1a1a2e"/>
  <circle cx="129" cy="85" r="3" fill="white"/>
  <!-- Mouth -->
  <path d="M88 115 Q100 125 112 115" stroke="#6d28d9" stroke-width="3" fill="none" stroke-linecap="round"/>
</svg>
